<?xml version="1.0" standalone="no"?><!-- Generator: Gravit.io --><svg xmlns="http://www.w3.org/2000/svg" xmlns:xlink="http://www.w3.org/1999/xlink" style="isolation:isolate" viewBox="-14 -141 600 600" width="600" height="600"><g><path d=" M -14 159 C -14 -6.575 120.425 -141 286 -141 C 451.575 -141 586 -6.575 586 159 C 586 324.575 451.575 459 286 459 C 120.425 459 -14 324.575 -14 159 Z  M 71.714 158.286 C 71.714 40.018 167.732 -56 286 -56 C 404.268 -56 500.286 40.018 500.286 158.286 C 500.286 276.553 404.268 372.571 286 372.571 C 167.732 372.571 71.714 276.553 71.714 158.286 Z " fill-rule="evenodd" fill="rgb(51,51,51)"/><circle vector-effect="non-scaling-stroke" cx="0" cy="0" r="1" transform="matrix(125,0,0,125,286,159)" fill="rgb(51,51,51)"/></g></svg>